# xmcd
#
# Track frame offsets:
# 150
# 13135
# 27550
# 40930
# 54497
# 67327
# 80700
# 94245
# 107955
# 121997
# 135647
# 147795
# 160697
# 171810
#
# Disc length: 2472 seconds
#
#
# Revision: 1
# Processed by: cddbd v1.5.1PL2 Copyright (c) Steve Scherf et al.
# Submitted via: FreeRIP 2.945 
#
DISCID=c809a60e
DTITLE=Hank Williams  - Beyond The Sunset
DYEAR=2001
DGENRE=Country
TTITLE0=Pictures From Life's Other Side
TTITLE1=Men With Broken Hearts
TTITLE2=Help Me Understand
TTITLE3=Too Many Parties And Too Many Pals
TTITLE4=Please Make Up Your Mind
TTITLE5=I've Been Down That Road Before
TTITLE6=Be Careful Of Stones That You Throw
TTITLE7=I Dreamed About Mama Last Night
TTITLE8=The Funeral
TTITLE9=Beyond The Sunset
TTITLE10=Just Waitin'
TTITLE11=Everything's Okay
TTITLE12=No, No Joe
TTITLE13=Ramblin' Man
EXTD=Mercury Record
EXTT0=
EXTT1=
EXTT2=
EXTT3=
EXTT4=
EXTT5=
EXTT6=
EXTT7=
EXTT8=
EXTT9=
EXTT10=
EXTT11=
EXTT12=
EXTT13=
PLAYORDER=
